<svg width="48" height="48" viewBox="0 0 48 48" fill="none" xmlns="http://www.w3.org/2000/svg">
<path d="M38.303 28.5828C37.1762 27.5927 35.8097 26.7372 34.2411 26.0402C33.5705 25.7424 32.7859 26.0443 32.4881 26.7146C32.1903 27.3849 32.4922 28.1696 33.1625 28.4676C34.4852 29.0554 35.625 29.7654 36.5497 30.5781C37.6898 31.5799 38.3438 33.0305 38.3438 34.5586V37.0156C38.3438 37.7479 37.7479 38.3438 37.0156 38.3438H10.9844C10.2521 38.3438 9.65625 37.7479 9.65625 37.0156V34.5586C9.65625 33.0305 10.3102 31.5799 11.4503 30.5781C12.7921 29.3989 16.7018 26.6562 24 26.6562C29.4191 26.6562 33.8281 22.2472 33.8281 16.8281C33.8281 11.409 29.4191 7 24 7C18.5809 7 14.1719 11.409 14.1719 16.8281C14.1719 19.9962 15.679 22.8184 18.0136 24.6169C13.7418 25.5559 11.0845 27.3634 9.69698 28.5828C7.98312 30.0886 7 32.2665 7 34.5586V37.0156C7 39.2127 8.78726 41 10.9844 41H37.0156C39.2127 41 41 39.2127 41 37.0156V34.5586C41 32.2665 40.0169 30.0886 38.303 28.5828ZM16.8281 16.8281C16.8281 12.8736 20.0455 9.65625 24 9.65625C27.9545 9.65625 31.1719 12.8736 31.1719 16.8281C31.1719 20.7827 27.9545 24 24 24C20.0455 24 16.8281 20.7827 16.8281 16.8281Z" fill="url(#paint0_linear)"/>
<defs>
<linearGradient id="paint0_linear" x1="16.0667" y1="9.26667" x2="39.3" y2="41" gradientUnits="userSpaceOnUse">
<stop stop-color="#B8746F"/>
<stop offset="1" stop-color="#6FB3B8"/>
</linearGradient>
</defs>
</svg>
